<?xml version="1.0" encoding="UTF-8"?>
<svg width="48px" height="60px" viewBox="0 0 48 60" version="1.1" xmlns="http://www.w3.org/2000/svg" xmlns:xlink="http://www.w3.org/1999/xlink">
    <!-- Generator: Sketch 41.2 (35397) - http://www.bohemiancoding.com/sketch -->
    <title>Logo</title>
    <desc>Created with Sketch.</desc>
    <defs></defs>
    <g id="Page-1" stroke="none" stroke-width="1" fill="none" fill-rule="evenodd">
        <g id="Desktop-HD" transform="translate(-60.000000, -10.000000)" fill="#FFFFFF">
            <g id="Header">
                <g id="Brand" transform="translate(60.000000, 10.000000)">
                    <g id="Logo">
                        <path d="M12.2274496,13.087578 C14.7629544,15.2006583 14.5402368,18.7331495 12.9368865,24.3987672 C11.3335362,30.0643849 12.2132514,37.6322905 18.1329346,37.6322895 C23.1473071,37.6322887 27.0018159,28.2963209 28.0251525,19.29078 C29.0484891,10.2852391 32.1387357,-0.0122701637 42.4155345,0.451932915 C44.4031488,0.451932915 45.8062194,1.91931781 45.8062194,1.84682628 C50.3350309,7.31415695 45.8202264,15.8989376 42.191603,19.718881 C42.1363291,19.7770692 30.16466,29.2752435 30.1146412,29.3301364 C29.2229968,30.3845497 22.5217665,37.7308715 21.0724339,43.3415782 C19.6231013,48.9522848 15.0272775,52.3318249 12.5744277,50.7790952 C7.0159201,48.742838 15.3580357,41.7198433 11.3710125,35.1297982 C7.38398918,28.5397532 3.55548019,34.8000421 0.848808504,28.5397522 C-1.85786318,22.2794623 6.32196448,8.16596858 12.2274496,13.087578 Z" id="Path-2"></path>
                        <path d="M1.92307692,60 C3.83483183,60 6.24741786,57.2222431 6.57606858,55.7692308 C6.90471931,54.3162185 7.5570911,51.9839243 5.5866014,51.5309239 C3.61611171,51.0779235 0.918743819,54.088539 0.596327316,55.6153136 C0.273910812,57.1420883 0.0113220199,60 1.92307692,60 Z" id="Oval"></path>
                    </g>
                </g>
            </g>
        </g>
    </g>
</svg>